<?xml version="1.0" standalone="no"?>
<!DOCTYPE svg PUBLIC "-//W3C//DTD SVG 20010904//EN"
 "http://www.w3.org/TR/2001/REC-SVG-20010904/DTD/svg10.dtd">
<svg version="1.0" xmlns="http://www.w3.org/2000/svg"
 width="400.000000pt" height="400.000000pt" viewBox="0 0 400.000000 400.000000"
 preserveAspectRatio="xMidYMid meet">
<metadata>
Created by potrace 1.14, written by Peter Selinger 2001-2017
</metadata>
<g transform="translate(0.000000,400.000000) scale(0.100000,-0.100000)"
fill="#000000" stroke="none">
<path d="M2521 3890 c-122 -34 -232 -103 -314 -199 -59 -70 -84 -116 -113
-210 -20 -63 -23 -93 -21 -192 l2 -117 -27 20 c-42 29 -162 76 -238 92 -88 18
-245 14 -330 -8 -188 -50 -362 -182 -440 -336 -50 -98 -60 -229 -29 -376 30
-144 109 -387 157 -480 l20 -40 -71 20 c-107 30 -332 29 -441 -2 -219 -62
-378 -192 -480 -391 -40 -80 -88 -216 -100 -286 -3 -16 -9 -50 -14 -75 -9 -51
-8 -190 2 -265 9 -63 42 -194 64 -254 14 -35 15 -53 8 -75 -9 -24 -7 -31 12
-46 12 -10 20 -25 16 -33 -5 -15 20 -47 36 -47 5 0 7 -13 4 -29 -5 -25 -2 -32
24 -45 16 -8 43 -37 60 -63 104 -162 280 -262 456 -261 70 1 76 0 100 -28 26
-28 26 -29 41 -9 9 11 13 26 9 35 -19 47 -18 50 25 50 34 0 41 3 41 20 0 10
-7 23 -15 28 -14 7 -14 14 -2 63 29 113 10 154 -144 315 -71 73 -129 140 -129
148 0 8 4 26 10 40 10 27 -8 56 -36 56 -8 0 -14 6 -14 14 0 8 -12 24 -26 35
-53 42 -91 238 -69 356 34 178 257 331 395 272 125 -54 244 -288 264 -517 13
-151 18 -189 51 -383 31 -181 46 -239 81 -317 54 -121 222 -237 369 -256 74
-10 87 -13 100 -24 18 -15 66 -16 91 -2 11 6 34 10 52 10 35 -1 77 23 87 49 3
10 34 36 68 59 130 85 226 235 261 408 38 181 17 344 -69 553 -24 58 -42 103
-40 101 1 -1 29 -37 62 -78 119 -149 216 -236 319 -288 67 -34 91 -41 169 -49
27 -3 59 -12 72 -20 36 -24 74 -9 89 35 0 1 15 -5 33 -14 30 -15 34 -15 52 2
10 9 19 24 19 33 0 9 23 30 51 46 105 62 221 207 255 320 21 68 25 213 9 310
-51 313 -160 642 -267 808 -17 27 -39 72 -48 101 -10 32 -25 55 -38 61 -11 5
-24 20 -27 34 -3 13 -24 40 -45 60 -58 53 -199 247 -249 341 -57 107 -90 206
-81 240 9 36 51 57 87 44 34 -12 48 -39 85 -169 44 -153 109 -277 182 -351
147 -147 358 -194 557 -125 133 45 222 108 237 166 8 29 14 34 65 54 19 8 27
18 27 36 0 14 -6 25 -12 26 -62 4 -88 22 -88 59 0 27 52 68 100 77 44 9 45 10
42 43 -18 216 -18 284 0 319 10 19 18 43 18 53 0 67 -75 139 -147 140 -41 0
-90 -20 -112 -46 -8 -9 -28 -16 -46 -16 -58 0 -154 -92 -182 -175 -13 -38 -8
-97 12 -135 14 -27 14 -30 -4 -39 -19 -11 -75 11 -112 45 -10 9 -23 13 -28 9
-6 -3 -11 -3 -12 2 -18 221 -230 539 -421 631 -35 17 -85 36 -112 42 -68 15
-178 11 -255 -10z m-706 -1297 c25 -24 58 -73 75 -108 l31 -64 -17 -57 c-21
-73 -14 -121 30 -208 33 -66 47 -122 51 -217 3 -56 29 -131 66 -184 16 -22 31
-53 35 -70 9 -41 2 -32 -42 50 -21 39 -76 135 -123 215 -215 367 -291 521
-291 587 0 59 62 116 116 105 14 -2 45 -24 69 -49z m873 -561 c64 -96 132
-225 152 -287 16 -50 16 -160 0 -209 -26 -80 -77 -26 -164 173 -34 76 -36 87
-25 115 16 37 14 62 -11 173 -11 49 -23 99 -26 111 -8 38 12 18 74 -76z m-898
-1052 c11 -35 24 -105 27 -153 6 -84 5 -89 -13 -85 -27 5 -79 117 -99 212 -8
43 -18 120 -20 170 l-4 91 44 -85 c24 -47 54 -114 65 -150z"/>
</g>
</svg>
